/* XPM */
static char *_67dfc9384ba4ed8901b0421a565792du8gpLAwSLlVfzNIN[] = {
/* columns rows colors chars-per-pixel */
"32 32 100 2 ",
"   c black",
".  c #060608",
"X  c #090709",
"o  c #0F080A",
"O  c #0D0D0F",
"+  c #141416",
"@  c #171619",
"#  c #1E1A1B",
"$  c #1A1A1C",
"%  c gray11",
"&  c #2A1011",
"*  c #1A1D20",
"=  c #1D1D20",
"-  c #221F23",
";  c #222222",
":  c #212024",
">  c #262A2E",
",  c #272B2F",
"<  c #2A282C",
"1  c #2C2A2E",
"2  c #2C2C2C",
"3  c #2E2E2F",
"4  c #3D2D2D",
"5  c gray19",
"6  c #323232",
"7  c #343434",
"8  c gray21",
"9  c #373738",
"0  c #3A3A3A",
"q  c #3C3C3C",
"w  c #3F3F3F",
"e  c #451718",
"r  c #453333",
"t  c #4E3C3C",
"y  c #7A2525",
"u  c #7C2C2C",
"i  c #3E3E41",
"p  c #414141",
"a  c #434343",
"s  c gray27",
"d  c #4C4242",
"f  c #484848",
"g  c #48484A",
"h  c #4B4B4B",
"j  c gray30",
"k  c gray31",
"l  c #525253",
"z  c gray33",
"x  c gray34",
"c  c #585858",
"v  c gray35",
"b  c #5A5A5A",
"n  c gray36",
"m  c #5F5F5F",
"M  c #734E4E",
"N  c #695252",
"B  c #6D5151",
"V  c #635E66",
"C  c #616162",
"Z  c gray39",
"A  c #69646B",
"S  c #686868",
"D  c #6C6C6C",
"F  c #6D6D6D",
"G  c #6F6F6F",
"H  c #736E76",
"J  c #727272",
"K  c #757078",
"L  c gray47",
"P  c gray48",
"I  c #7B7B7B",
"U  c gray50",
"Y  c #882829",
"T  c #952C2C",
"R  c #9A3B3B",
"E  c #9F3939",
"W  c #A13737",
"Q  c #AC3232",
"!  c #B33B30",
"~  c #DC6D27",
"^  c #DF7126",
"/  c #A0494B",
"(  c #7D7780",
")  c #867A82",
"_  c #877A82",
"`  c #847E87",
"'  c #897D82",
"]  c gray53",
"[  c #85818A",
"{  c #86838D",
"}  c #87848E",
"|  c gray56",
" . c #939393",
".. c #959595",
"X. c #9A9A9B",
"o. c #9BADB7",
"O. c gray64",
"+. c #A1B2BB",
"@. c #DDDDDD",
"#. c white",
/* pixels */
"                                                                ",
"  ; h h h h h h h h h h h h h h h h h h h h h h h h h h h h ;   ",
"  h O.O.O.O.O.O.O.X.C C C C Z C O.O.O.O.O.O.O.O.O.O.O.O.O.O.h   ",
"  h O. .P P P P P D . . . . . . U U U ( U U U U U U U U ..O.h   ",
"  h O.P 8 8 8 8 8 6 . X e e e e 6 5 s s s s s s s s s s U O.h   ",
"  h O.P 8 8 8 8 0 6 . o Q Q Q Q . . s s z z z z l l h s U O.h   ",
"  h O.P 8 8 8 0 s p $ # y y / / . . 6 7 c v v v J L z s U O.h   ",
"  h O.P 8 8 0 q s s s p . . ` ` . . . . . . . . C L c s U O.h   ",
"  h O.P 8 0 s s s s 9 9 : : ` ` > > > > > > > > l C k s U O.h   ",
"  h O.P 8 0 s s s q . O ` ` ` ` o.o.o.o.o.o.o.o.> . w s U O.h   ",
"  h O.P 8 0 s a q 9 @ = } } } { o.o.o.o.o.o.o.o.> . q s U O.h   ",
"  h O.P 8 0 s 9 . @ ` [ o.o.o.o.o.o.o.o.o.o.o.o.> . p s U O.h   ",
"  h O.P 8 0 s 8 . @ [ { o.o.+.+.+.+.+.+.+.+.+.+., . w s U O.h   ",
"  h O.P 8 0 s 8 . * o.o.o.o.#.#.#.#.#.#.#.#.#.#.q . w s U O.h   ",
"  h O.] v v v h . * o.o.o.o.#.#.#.#.#.#.#.#.#.#.q . w s U O.h   ",
"  h O.] v v v h . * o.o.o.o.#.#.. . . . . . . . . . w s U O.h   ",
"  h O.] v v v h . * o.o.o.o.#.#.. . . . . . . . . . p s ( O.h   ",
"  h O.] v v v s . @ ` [ o.o.#.#.#.#.#.#.+ . @.#.q . q s U O.h   ",
"  h O.] v v v h . @ ` [ o.o.#.#.#.#.#.#.+ . @.#.q . i s U O.h   ",
"  h O.] v v v s . . . o Q Q Q Q Q Q Q Q ~ ^ ! Q & . p s U O.h   ",
"  h O.] v v v h . . . o Q Q Q Q Q Q Q Q ~ ^ ! Q & . p s U O.h   ",
"  h O.] v v v v z h . O ) ) _ _ ) ) ) ) ' ' ) ) ; . p s U O.h   ",
"  h O.] v v v v z h . O ` ` ` ` ` ` ` ` ` ` ` ` ; . q s U O.h   ",
"  h O.] v v v N W u . O ` ` ` ` @ @ @ @ @ @ K ` - . q h U O.h   ",
"  h O.] v v v B Q T . O ` ` ` ` . . . . . . H ` : . i s U O.h   ",
"  h O.] v B R W Q T . O ` ` = - Y Y . . V A < - 0 i 9 6 J O.h   ",
"  h O.] v M Q Q Q T . O ` ` . . Q Q . . I ` @ . i j 8 2 D O.h   ",
"  h O.P s d r r r 4 . . < 1 8 8 t t . . < < 0 0 h j 8 3 m U p   ",
"  h O.] v n v n v j . . . . C m V m . . . . l C C C v z C D p   ",
"  h O.| D D F F D S h h s h D D D D g g h h S D D D D D D D p   ",
"  ; h p 5 6 5 5 6 3 5 6 5 6 6 3 3 6 6 5 6 3 6 6 6 6 6 3 3 6 %   ",
"                                                                "
};
