/* XPM */
static char *_1577021116f401abb41ae73a225cba5WzqMKLvNls9BDKzo[] = {
/* columns rows colors chars-per-pixel */
"32 32 19 1 ",
"  c black",
". c #101010",
"X c #202020",
"o c gray14",
"O c gray17",
"+ c gray18",
"@ c gray19",
"# c #373737",
"$ c #3A3A3A",
"% c gray28",
"& c gray31",
"* c #515151",
"= c #565656",
"- c #5B5B5B",
"; c #5D5D5D",
": c gray38",
"> c gray40",
", c #686868",
"< c #717171",
/* pixels */
"                                ",
" .@@@@@@@+@@@@@@@@@@@@@@@@@+@@. ",
" @<<<<<<<<<<<<<<<<<<<<<<<<<<<<@ ",
" @<>================*=*=*=*=><@ ",
" @<=OOOOOOOOOOOO+OOOX.XXXXXX*<+ ",
" @<=O+######OOOOOOOOoOoXoXXX=<@ ",
" @<=O#*****&OOOOOOOO+OOOXXXX*<@ ",
" @<=O#*****&OOOOOOOO+OOOooO.=<@ ",
" @<=O#*****&OOOOOOOOOOOO+OXX=<@ ",
" @<=O#*****&OO@@@@@+OOOOOOoX*<@ ",
" @<=O#*****&OO%%%%%%OOOOOOXX=<@ ",
" @<=O#*****&OO%%%%%%+OOOOOoX*<@ ",
" @<=O#*****&OO%%%%%%+OOOOOXX=<@ ",
" @<=O#*****&OO%%%%%%+OOOO+oX*<@ ",
" @<=O#*****&OO%%%%%%OO#$$$$$;<@ ",
" @<=O#*****&OO%%%%%%+O$$$$$$;<@ ",
" @<=O#*****&OO%%%%%%+O#$$$$$;<@ ",
" +<=O#*****&OO%%%%%%OO#$$$$$;<@ ",
" @<=O#*****&OO%%%%%%+O$$$$$$;<@ ",
" @<=O#*****&OO%%%%%%+O#$$$$$;<@ ",
" @<=O#*****&OO%%%%%%+O#$$$$$;<@ ",
" @<=O#*****&OO%%%%%%+O#$$$$$;<@ ",
" @<=O#*****&OO%%%%%%+O#$$$$$;<@ ",
" @<=O#*****&OO%%%%%%OO$$$$$$;<@ ",
" @<=+#*****&OO%%%%%%+O#$$$$$;<@ ",
" @<=O#*****&OO%%%%%%OO$$$$$$;<@ ",
" @<=O#*****&OO%%%%%%+O#$$$$$;<@ ",
" @<=O#******OO%%%%%%+O$$$$$$;<@ ",
" @<>=->:>>>:==::;:::==;;;;;;,<@ ",
" @<<<<<<<<<<<<<<<<<<<<<<<<<<<<@ ",
" .@@@@@@@@@@@@@@@@@@@@@@@@@@@@. ",
"                                "
};
