/* XPM */
static char *_edea5c772cc427de733045e2a004551gjx72I5sdkYuufPW[] = {
/* columns rows colors chars-per-pixel */
"32 32 132 2 ",
"   c #060608",
".  c #070708",
"X  c #090A0A",
"o  c #0C0E0B",
"O  c #0E0B0D",
"+  c #100C0E",
"@  c #180F0E",
"#  c #0D100B",
"$  c #12130F",
"%  c #11160E",
"&  c #18160F",
"*  c #151A0F",
"=  c #161011",
"-  c #171111",
";  c #1F1411",
":  c #1D1615",
">  c #1B1619",
",  c #231713",
"<  c #241813",
"1  c #261B1B",
"2  c #211A1E",
"3  c #2E1F1F",
"4  c #202A17",
"5  c #212B17",
"6  c #222F17",
"7  c #37221A",
"8  c #3A241B",
"9  c #38231C",
"0  c #233119",
"q  c #28371B",
"w  c #2B3B1C",
"e  c #2C3E1D",
"r  c #2D232B",
"t  c #3F2B27",
"y  c #3C2E27",
"u  c #32272C",
"i  c #34282D",
"p  c #3F2A29",
"a  c #3F2B29",
"s  c #402C2A",
"d  c #422E2B",
"f  c #452D2E",
"g  c #4A312E",
"h  c #4B302F",
"j  c #513224",
"k  c #563426",
"l  c #5B3728",
"z  c #4F3431",
"x  c #4F3531",
"c  c #513531",
"v  c #503532",
"b  c #503734",
"n  c #563A36",
"m  c #583B37",
"M  c #5B3B36",
"N  c #543D3A",
"B  c #5B3D39",
"V  c #5E3C38",
"C  c #5D3F3D",
"Z  c #623B2A",
"A  c #653D2B",
"S  c #693F2D",
"D  c #2E401E",
"F  c #30431F",
"G  c #334721",
"H  c #384522",
"J  c #344821",
"K  c #354A22",
"L  c #374C22",
"P  c #394F24",
"I  c #3A5124",
"U  c #3D5325",
"Y  c #3F5727",
"T  c #404E25",
"R  c #4E4927",
"E  c #5C432A",
"W  c #524928",
"Q  c #5C4E2D",
"!  c #40592A",
"~  c #415B2B",
"^  c #455B2A",
"/  c #415C28",
"(  c #425C2B",
")  c #485F2D",
"_  c #59502D",
"`  c #59413E",
"'  c #59413F",
"]  c #5F403D",
"[  c #62412B",
"{  c #6B412E",
"}  c #6F432F",
"|  c #604E2E",
" . c #60413D",
".. c #754C33",
"X. c #7C4A34",
"o. c #7D4B34",
"O. c #7E4C35",
"+. c #47632C",
"@. c #48632D",
"#. c #49662E",
"$. c #4B692F",
"%. c #556030",
"&. c #516530",
"*. c #554043",
"=. c #514047",
"-. c #544044",
";. c #5E464A",
":. c #644743",
">. c #624646",
",. c #6A4845",
"<. c #6D4A46",
"1. c #6D4C47",
"2. c #624849",
"3. c #6C4C4A",
"4. c #6D4D4E",
"5. c #724B46",
"6. c #704C47",
"7. c #704C48",
"8. c #714E49",
"9. c #754F4B",
"0. c #75504B",
"q. c #75504C",
"w. c #77514C",
"e. c #78524D",
"r. c #7A534E",
"t. c #825752",
"y. c #855852",
"u. c #855853",
"i. c #865954",
"p. c #875A54",
"a. c #8A5B56",
"s. c #8D5D57",
/* pixels */
"=.2.w.w.w.w.w.w.w.w.w.w.=.=.=.=.=.=.w.w.w.w.w.w.w.w.w.w.;.=.=.=.",
"2.3.w.w.w.w.w.w.w.w.w.w.4.4.=.=.2.2.w.w.w.w.w.w.w.w.w.w.w.4.;.=.",
"w.w.w.w.w.w.w.w.w.w.w.e.s.s.=.=.w.w.w.w.w.w.w.w.w.w.w.w.u.s.4.=.",
"w.w.w.w.w.w.w.w.w.w.w.e.s.s.=.=.w.w.w.w.w.w.w.w.w.w.w.w.u.s.4.=.",
"w.w.w.w.w.w.w.w.w.w.w.w.s.s.=.=.w.w.w.w.w.w.w.w.w.w.w.w.u.s.4.=.",
"w.w.w.w.w.w.w.w.w.w.w.w.s.s.=.=.w.w.w.w.w.w.w.w.w.w.w.w.u.s.4.=.",
"w.w.w.w.w.w.w.w.w.w.w.1.3 3 : > 1 1 b w.w.w.w.w.w.w.w.w.u.s.4.=.",
"w.w.w.w.w.w.w.w.w.w.,.n ; , < < , ; p ] w.w.w.w.w.w.w.w.u.s.4.=.",
"w.w.w.w.w.w.0.8.1.7.d @ S X.O.O.X.{ 8 : 3.5.8.5.w.w.e.w.i.s.4.=.",
"w.w.w.w.w.w. .O O O 9 A O.O.O.O.O.X.} k O O O 3 w.w.e.e.i.s.4.=.",
"w.w.w.w.w.w.C X F ! ) %.O.O.O.X.O.O.X...~ J % 1 w.w.i.s.s.s.4.=.",
"0.w.e.e.e.e.,.d 4 ! @.&.O.| Q Q Q Q Q Q ~ 6 y b w.w.i.s.a.a.4.=.",
"` 8.s.s.s.s.s.y.+ H ^ &.X.P I I U I I P J : 5.s.s.s.s.s.3.` -.=.",
"` 8.s.s.s.s.s.y.+ l Q &.S T I I I I U F O y.s.s.s.s.s.s.1.` -.=.",
"=.*.` ` ` ` ` N O l W U T @.w * #.#.w # O N ` ` ` ` ` ` -.=.=.=.",
"=.*.` ` ` ` ` N X l E R U @.U w $.$.P 0 X N ` ` ` ` ` ` -.=.=.=.",
"=.>.w.w.w.w.w.5.: j A [ I @.$.$.$.$.$.Y O 5.w.w.w.w.w.w.;.=.=.=.",
"=.>.w.w.w.w.w.w.0.- 7 [ I $.$.$.$.$.$.( O 8.w.w.w.w.w.w.;.=.=.=.",
"r.0.w.w.w.w.w.w.w.,.d - I $.@.$.$.$.$.( O 6.w.w.w.w.w.w.y.s.4.=.",
"r.0.w.w.w.w.w.w.0.e.f # I / J q q e K I O 5.w.w.w.w.w.w.y.s.4.=.",
"0.w.w.w.w.w.w.0.8.w.a # I J 6 O   o 4 w & ,.9.0.w.w.w.w.y.s.4.=.",
"w.w.w.w.w.w.w.9.x x r # K $ 2 r   G 4 @ z c 1.9.w.w.w.w.i.s.4.=.",
"w.w.w.w.w.w.<.z z z 3   X z u r     r g z z c V w.w.w.w.u.s.4.=.",
"w.w.w.w.w.w.<.z z z d t z M i u p p d z z z z N w.w.w.w.u.s.4.=.",
"w.w.w.w.w.w.6.M c c z z V V i i z z z c z z m C w.w.w.w.u.s.4.=.",
"w.w.w.w.w.w.0.0.c c z z V V u u z z z c z z 1.w.w.w.w.w.u.s.4.=.",
"w.w.w.w.w.w.r.0.0.r.y.a.s.s.=.=.0.e.w.w.0.w.e.w.w.w.t.i.a.s.4.=.",
"w.w.w.w.w.w.w.w.e.w.s.s.s.s.=.=.e.0.w.w.w.w.0.e.w.w.i.s.s.s.4.=.",
":.8.y.y.y.y.y.y.y.y.s.a.1.1.=.=.:.:.y.y.y.y.i.i.y.y.a.s.w.3.>.=.",
"` 0.a.a.s.s.s.s.s.s.s.s.` ` =.=.` ` s.s.s.s.a.s.s.s.s.s.3.` *.=.",
"-.>.1.0.0.1.0.0.8.8.8.8.*.*.=.=.*.*.8.8.8.8.8.8.0.8.1.6.>.*.=.=.",
"=.-.` ` ` ` ` ` ` ` ` *.=.=.=.=.=.=.` ` ` ` ` ` ` ` ` ` *.=.=.=."
};
