/* XPM */
static char *_5147416d59a4e74b30ca5381d9427533Yv5kynCB4TJ7o9y[] = {
/* columns rows colors chars-per-pixel */
"32 32 121 2 ",
"   c #060608",
".  c #090709",
"X  c #08080A",
"o  c #0F080A",
"O  c #0D0D0F",
"+  c #141416",
"@  c #171619",
"#  c #2A1011",
"$  c #2E1E1D",
"%  c #1A1D20",
"&  c #221F23",
"*  c #271F22",
"=  c #212024",
"-  c #2F2020",
";  c #262A2E",
":  c #2A282C",
">  c #2B292D",
",  c #2C2A2E",
"<  c #382725",
"1  c #3B2725",
"2  c #3A2927",
"3  c #3E2827",
"4  c #31272C",
"5  c #37282A",
"6  c #34282D",
"7  c #3A2928",
"8  c #362B31",
"9  c #3C3C3E",
"0  c #451718",
"q  c #41262A",
"w  c #412D2A",
"e  c #442C29",
"r  c #4B2B28",
"t  c #532F2C",
"y  c #43312F",
"u  c #49302D",
"i  c #48312F",
"p  c #4A322F",
"a  c #422F30",
"s  c #483533",
"d  c #4F3431",
"f  c #4F3634",
"g  c #4D3835",
"h  c #4F3B3E",
"j  c #503531",
"k  c #543632",
"l  c #503535",
"z  c #513836",
"x  c #503A37",
"c  c #563835",
"v  c #583935",
"b  c #593A36",
"n  c #503B3A",
"m  c #593D39",
"M  c #5B3D39",
"N  c #593D3A",
"B  c #5E3C38",
"V  c #7A2525",
"C  c #613C39",
"Z  c #5C403B",
"A  c #59413E",
"S  c #5D403D",
"D  c #62403C",
"F  c #60423F",
"G  c #61423F",
"H  c #554043",
"J  c #514047",
"K  c #544044",
"L  c #5E4547",
"P  c #5F4649",
"I  c #644440",
"U  c #644743",
"Y  c #624646",
"T  c #684642",
"R  c #694843",
"E  c #6B4944",
"W  c #6C4945",
"Q  c #6D4C47",
"!  c #624849",
"~  c #6C4C4A",
"^  c #6D4D4E",
"/  c #724B47",
"(  c #714E49",
")  c #734F4A",
"_  c #744D48",
"`  c #784E49",
"'  c #75504B",
"]  c #77514C",
"[  c #78524D",
"{  c #7A534E",
"}  c #7C514C",
"|  c #7E534D",
" . c #69646B",
".. c #736E76",
"X. c #757078",
"o. c #802C2B",
"O. c #882829",
"+. c #952C2C",
"@. c #A53636",
"#. c #AC3232",
"$. c #A33837",
"%. c #B33B30",
"&. c #DC6D27",
"*. c #DF7126",
"=. c #814B47",
"-. c #834A46",
";. c #874845",
":. c #844A47",
">. c #855853",
",. c #8B5C56",
"<. c #8D5D57",
"1. c #A0494B",
"2. c #867A82",
"3. c #847E87",
"4. c #897D82",
"5. c #85818A",
"6. c #87848E",
"7. c #9BADB7",
"8. c #A1B2BB",
"9. c #DDDDDD",
"0. c white",
/* pixels */
"J ! ] ] ] ] ] ] ' [ ' ( J J J J J J ' [ ] ] ] ] ] ] ] ] ! J J J ",
"! ~ ] ] ] ] ] ] ( i i i a a 4 J ! ! ] ] ] ] ] ] ] ] ] ] ^ ^ P J ",
"] ] ] ] ] ] ] ] R       X .   J ] ] ] ] ] ] ] ] ] ] ] ] >.<.^ J ",
"] ] ] ] ] ] ] ] R   . 0 0 0 0 8 l ] ] ] ] ] ] ] ] ] ] ] >.<.^ J ",
"] ] ] ] ] ] ] ] R   o #.#.#.#.    ' ' ] ] ] ) ] ] ] ] ] >.<.^ J ",
"] ] ] ] ] ] ] ] / * $ V V 1.1.    M M M N N N / ] ] ] ] >.<.^ J ",
"] ] ] ] ] ] ] ] ] ] (     3.3.                I ] ] ] ] >.<.^ J ",
"] ] ] ] ] ] ] ] ( I M = = 3.3.; ; ; ; ; ; ; ; g S / ] ] >.<.^ J ",
"] ] ] ] ] ] ] [ E   O 3.3.3.3.7.7.7.7.7.7.7.7.; X N ] ] >.<.^ J ",
"] ] ] ] ] [ ( T S @ @ 6.6.6.6.7.7.7.7.7.7.7.7.;   N { { >.<.^ J ",
"] ] ] ] [ ' F   @ 5.6.7.7.7.7.7.7.7.7.7.7.7.7.;   N >.<.<.<.^ J ",
"' ] [ [ [ [ F   @ 5.6.7.7.8.8.8.8.8.8.8.8.8.8.;   N >.<.,.,.^ J ",
"A ( <.<.<.<./   @ 8.7.7.7.0.0.0.0.0.0.0.0.0.0.9   T <.<.~ A H J ",
"A ( <.<.<.<./   % 7.7.7.7.0.0.0.0.0.0.0.0.0.0.9   T <.<.Q A H J ",
"J H A A A A s   % 7.7.7.7.0.0.                    y A A H J J J ",
"J H A A A A s   % 7.7.7.7.0.0.                    y A A J J J J ",
"J ! ] ] ] [ F   + 3.5.7.7.0.0.0.0.0.0.+   9.0.9   M ] ] ! J J J ",
"J ! ] ] ] ' F   @ 3.5.7.7.0.0.0.0.0.0.+   9.0.9   M ] [ ! J J J ",
"] ] ] ] ] ] F       o #.#.#.#.#.#.#.#.&.*.%.#.#   N ' ' >.<.^ J ",
"] ] ] ] ] ] F .     o #.#.#.#.#.#.#.#.&.*.%.#.#   N ' ' >.<.^ J ",
"] ] ] ] ] ] ) ( F   O 4.2.2.2.2.2.2.2.4.4.2.2.=   M ] ] >.<.^ J ",
"] ] ] ] ] ] [ ' R   O 3.3.3.3.3.3.3.3.3.3.3.3.=   M ] ] >.<.^ J ",
"] ] ] ] ] ] =.@.o.  O 3.3.3.3.@ + @ @ @ @ X.3.=   N ] ] >.<.^ J ",
"] ] ] ] ] ] -.#.+.  O 3.3.3.3.  .         ..3.=   N ' ' >.<.^ J ",
"] ] ] ] -.$.$.#.+.  O 3.3.= = O.O.     . ., = 2 3 f b R >.<.^ J ",
"] ] ' ' ;.#.#.#.+.  O 5.3.  X #.#.    X.5.+   3 d d d T >.<.^ J ",
"] ] W B C t t t r   X : : e - q t     : : < 3 u d d c F T | ^ J ",
"] ] T l p j j l w         B 4 4 j         e j p d d b B B ` ^ J ",
"U ' ' b v b b k k 2 q 3 - i 6 6 w $ < < 3 k v v c c M B l B L J ",
"Z ( } B B C B C B C B B 2 2 6 6 2 2 B B B B B B B B B B i d H J ",
"H Y E S M p i i i i p i 5 5 6 6 5 5 p i p p p y p p p M n h J J ",
"J K A A g 2 2 3 2 2 3 2 6 6 6 6 6 6 3 2 2 2 2 2 2 3 2 g H J J J "
};
