/* XPM */
static char *a094e8338f454d1d90e6aa33cf4b61b8tgL2XkQpFf7xa9oN[] = {
/* columns rows colors chars-per-pixel */
"32 32 28 1 ",
"  c #59413E",
". c #59413F",
"X c #554043",
"o c #534045",
"O c #514047",
"+ c #544044",
"@ c #5F4645",
"# c #5E464A",
"$ c #644743",
"% c #6D4C47",
"& c #624849",
"* c #6C4C4A",
"= c #6C4C4D",
"- c #6D4D4E",
"; c #714E49",
": c #734F4A",
"> c #75504B",
", c #77514C",
"< c #78524D",
"1 c #7B544E",
"2 c #7B544F",
"3 c #825752",
"4 c #855853",
"5 c #865954",
"6 c #875A54",
"7 c #8A5B56",
"8 c #8B5C56",
"9 c #8D5D57",
/* pixels */
"O&,,,,,,,,,,OOOOOO,,,,,,,,,,#OOO",
"&*,,,,,,,,,,--OO&&,,,,,,,,,,--#O",
",,,,,,,,,,,<99OO,,,,,,,,,,,,59-O",
",,,,,,,,,,,<99OO,,,,,,,,,,,,59-O",
",,,,,,,,,,,<99OO,,,,,,,,,,,,49-O",
",,,,,,,,,,,<99OO,,,,,,,,,,,,49-O",
",,,,,,,,,,,<99OO,,,,,,,,,,,,49-O",
",,,,,,,,,,,>99OO,,,,,,,,,,,>49-O",
",,,,,,,,,,,<99OO,,,,,,,,,,<<59-+",
",,,,,,,,,,<199OO,,,,,,,,,,<<59-O",
",,,,,,,,<19999OO,,,,,,,,,,5999-O",
">,<<<<<<<19977OO,:<<<<<,<<5977=O",
" ;9999999997  OO  9999999999% +O",
" ;9999999999  OO  9999999999% +O",
"OX         +OOOOOO          +OOO",
"OX          XOOOOO          +OOO",
"O&,,,,,,<:<<OOOOOO,,,,,,,,,,&OOO",
"O&,,,,,,<<<:OOOOOO,,,,,,,,,,&OOO",
",,,,,,,,,,;<99OO,,,,,,,,,,,,49=O",
",,,,,,,,,,<<99OO,,,,,,,,,,,,49-O",
",,,,,,,,,,,<99OO,,,,,,,,,,,,49-O",
",,,,,,,,,,,<99OO,,,,,,,,,,,,49-O",
",,,,,,,,,,,<99OO,,,,,,,,,,><49-O",
",,,,,,,,,,,<99OO,,,,,,,,,,<>49-O",
",,,,,,,,,,,<99OO,,,,,,,,,,,,49-O",
",,,,,,,,,,,<99OO,,,,,,,,,,,,49-O",
",,,,,,,,,<5699+O,,,,,,,,,,3579-O",
",,,,,,,,<<9999OO,,,,,,,,,,5999-O",
"$:4444444598%%OO$$4444444479<%#+",
" :8889999997  OO  9999999998% +O",
"+$;;::;;;;;;++OO++;;;;;;;;;;$+O+",
"+X    X    +O+OO+O          OOOO"
};
