/* XPM */
static char *_94fedb389744a489e6716e25433d03fvOgxnvLf2NL4Qs7V[] = {
/* columns rows colors chars-per-pixel */
"32 32 51 1 ",
"  c #353E50",
". c #374053",
"X c #384255",
"o c #394356",
"O c #3A4458",
"+ c #3A4558",
"@ c #3D475B",
"# c #3E485D",
"$ c #3F4A5F",
"% c #424C61",
"& c #414D62",
"* c #434F65",
"= c #444F65",
"- c #445067",
"; c #46536A",
": c #49556C",
"> c #48556D",
", c #4A5770",
"< c #4D5972",
"1 c #4E5B75",
"2 c #4F5C77",
"3 c #505C74",
"4 c #505D78",
"5 c #505D79",
"6 c #505E79",
"7 c #52607C",
"8 c #53617F",
"9 c #556380",
"0 c #576580",
"q c #586681",
"w c #596784",
"e c #5B6A85",
"r c #5B6A87",
"t c #5E6C87",
"y c #5A6988",
"u c #5B6A89",
"i c #5C6C8B",
"p c #5D6C8B",
"a c #61708D",
"s c #60708F",
"d c #62718E",
"f c #617090",
"g c #627191",
"h c #647491",
"j c #657592",
"k c #647494",
"l c #677796",
"z c #6B7B9B",
"x c #6C7C9C",
"c c #6E7E9E",
"v c #6F7F9F",
/* pixels */
"*@              ;=              ",
"*:3<333322<33333&=33333333333333",
"*0vvvvvvvvvvvvvv-&vvvvvvvvvvvvvv",
"*0vvllllllllllvv--vvllllllllllxv",
"-8vlryyyyyyyyyvv&-vvrtuyyyywyrlv",
"$<tq2225765522tt$#tp32335954426t",
"       X*&              &=o     ",
"%%%%%%&&**%%%%%%%%$*&&$%*=%%%%%*",
"vvvvvvvk&:vvvvvvvvvvvvvv<*dvvvvv",
"xxxxzvvk=:vvzzzvzzzvzzvv<*avvzzz",
"yytryhvh*:vvyyyyyyyyyyzv<*dvhyyy",
"yyyyypvh*:vzyyyyyyyyyyzv<*dvfyyy",
"yyyyyyy9****ryyyyyyyyyyy:*6yyyyy",
"yyyyyyy9***;yyyyyyyyyyyy>-9yyyyy",
"*@              **              ",
"*@              *-              ",
"-0vvvvvvvvvvvvvv**vvvvvvvvvvvvvv",
"-7vvvvvvvvvvvvvv**vvvvvvvvvvvvvv",
"-8vlyyyyyyyyyyvv**vviyyyyyyyyylv",
"-8vlyyyryyyyyyvv**vvyyyyyyyyyykv",
"-3rry9-,yyyyyyyy**yiyyyyyyyuyyyy",
"-1yyy7->yyyyyyyy**yyyyyiyyyuyyyy",
" XOOOo O;;OOOOOo ooOoo@o-;$oOOoo",
"  ..   X**              %*o     ",
"sddddddy-;daadahahaaahaa>*qafddd",
"ccvvvvvj=>vvvvvvvvvvvvvv2*avvvvv",
"dhifshvj*>vvafphfpssssvv,*avlaff",
"ryryyhvj-;vvyyyyyyyyyyzv<*fvfyyy",
"yyyyyify*;hfyyyyyyyyyysf,-wfpyyy",
"yyyryyy0-;yyyyyyyyyyywyy:-6wyyyy",
"1122<22,*-<2222<22542222;=:2<244",
"*************&**&**&***********="
};
